<mxfile host="65bd71144e">
    <diagram id="Lwrxb2z2_r5OorN-RsIl" name="Page-1">
        <mxGraphModel dx="1481" dy="688" grid="1" gridSize="10" guides="1" tooltips="1" connect="1" arrows="1" fold="1" page="1" pageScale="1" pageWidth="850" pageHeight="1100" math="0" shadow="0">
            <root>
                <mxCell id="0"/>
                <mxCell id="1" parent="0"/>
                <mxCell id="NmgbknoarWCByTXODH4I-1" value="Server1" style="rounded=0;whiteSpace=wrap;html=1;align=left;verticalAlign=top;" parent="1" vertex="1">
                    <mxGeometry x="130" y="300" width="270" height="190" as="geometry"/>
                </mxCell>
                <mxCell id="NmgbknoarWCByTXODH4I-2" value="Server2" style="rounded=0;whiteSpace=wrap;html=1;align=left;verticalAlign=top;" parent="1" vertex="1">
                    <mxGeometry x="560" y="300" width="190" height="140" as="geometry"/>
                </mxCell>
                <mxCell id="NmgbknoarWCByTXODH4I-3" value="&lt;span style=&quot;color: rgb(224 , 30 , 90) ; font-family: &amp;#34;monaco&amp;#34; , &amp;#34;menlo&amp;#34; , &amp;#34;consolas&amp;#34; , &amp;#34;courier new&amp;#34; , monospace ; font-size: 12px ; font-style: normal ; font-weight: 400 ; letter-spacing: normal ; text-align: left ; text-indent: 0px ; text-transform: none ; word-spacing: 0px ; background-color: rgba(29 , 28 , 29 , 0.04) ; display: inline ; float: none&quot;&gt;enp35s0&lt;/span&gt;" style="rounded=0;whiteSpace=wrap;html=1;align=left;verticalAlign=top;" parent="1" vertex="1">
                    <mxGeometry x="370" y="320" width="90" height="40" as="geometry"/>
                </mxCell>
                <mxCell id="NmgbknoarWCByTXODH4I-5" value="&lt;div&gt;&lt;span style=&quot;color: rgb(224 , 30 , 90) ; font-family: &amp;#34;monaco&amp;#34; , &amp;#34;menlo&amp;#34; , &amp;#34;consolas&amp;#34; , &amp;#34;courier new&amp;#34; , monospace ; font-size: 12px ; font-style: normal ; font-weight: 400 ; letter-spacing: normal ; text-align: left ; text-indent: 0px ; text-transform: none ; word-spacing: 0px ; background-color: rgba(29 , 28 , 29 , 0.04) ; display: inline ; float: none&quot;&gt;br-int&lt;/span&gt;&lt;/div&gt;&lt;div&gt;&lt;span style=&quot;color: rgb(224 , 30 , 90) ; font-family: &amp;#34;monaco&amp;#34; , &amp;#34;menlo&amp;#34; , &amp;#34;consolas&amp;#34; , &amp;#34;courier new&amp;#34; , monospace ; font-size: 12px ; font-style: normal ; font-weight: 400 ; letter-spacing: normal ; text-align: left ; text-indent: 0px ; text-transform: none ; word-spacing: 0px ; background-color: rgba(29 , 28 , 29 , 0.04) ; display: inline ; float: none&quot;&gt;&lt;/span&gt;&lt;span style=&quot;color: rgb(224 , 30 , 90) ; font-family: &amp;#34;monaco&amp;#34; , &amp;#34;menlo&amp;#34; , &amp;#34;consolas&amp;#34; , &amp;#34;courier new&amp;#34; , monospace ; font-size: 12px ; font-style: normal ; font-weight: 400 ; letter-spacing: normal ; text-align: left ; text-indent: 0px ; text-transform: none ; word-spacing: 0px ; background-color: rgba(29 , 28 , 29 , 0.04) ; display: inline ; float: none&quot;&gt;enp35s0.4000&lt;/span&gt;&lt;/div&gt;&lt;div&gt;&lt;span style=&quot;color: rgb(224 , 30 , 90) ; font-family: &amp;#34;monaco&amp;#34; , &amp;#34;menlo&amp;#34; , &amp;#34;consolas&amp;#34; , &amp;#34;courier new&amp;#34; , monospace ; font-size: 12px ; font-style: normal ; font-weight: 400 ; letter-spacing: normal ; text-align: left ; text-indent: 0px ; text-transform: none ; word-spacing: 0px ; background-color: rgba(29 , 28 , 29 , 0.04) ; display: inline ; float: none&quot;&gt;&lt;br&gt;&lt;/span&gt;&lt;/div&gt;" style="rounded=0;whiteSpace=wrap;html=1;align=left;verticalAlign=top;" parent="1" vertex="1">
                    <mxGeometry x="370" y="370" width="90" height="50" as="geometry"/>
                </mxCell>
                <mxCell id="NmgbknoarWCByTXODH4I-6" value="&lt;div&gt;&lt;span style=&quot;color: rgb(224 , 30 , 90) ; font-family: &amp;#34;monaco&amp;#34; , &amp;#34;menlo&amp;#34; , &amp;#34;consolas&amp;#34; , &amp;#34;courier new&amp;#34; , monospace ; font-size: 12px ; font-style: normal ; font-weight: 400 ; letter-spacing: normal ; text-align: left ; text-indent: 0px ; text-transform: none ; word-spacing: 0px ; background-color: rgba(29 , 28 , 29 , 0.04) ; display: inline ; float: none&quot;&gt;br-int&lt;/span&gt;&lt;/div&gt;&lt;div&gt;&lt;span style=&quot;color: rgb(224 , 30 , 90) ; font-family: &amp;#34;monaco&amp;#34; , &amp;#34;menlo&amp;#34; , &amp;#34;consolas&amp;#34; , &amp;#34;courier new&amp;#34; , monospace ; font-size: 12px ; font-style: normal ; font-weight: 400 ; letter-spacing: normal ; text-align: left ; text-indent: 0px ; text-transform: none ; word-spacing: 0px ; background-color: rgba(29 , 28 , 29 , 0.04) ; display: inline ; float: none&quot;&gt;&lt;/span&gt;&lt;span style=&quot;color: rgb(224 , 30 , 90) ; font-family: &amp;#34;monaco&amp;#34; , &amp;#34;menlo&amp;#34; , &amp;#34;consolas&amp;#34; , &amp;#34;courier new&amp;#34; , monospace ; font-size: 12px ; font-style: normal ; font-weight: 400 ; letter-spacing: normal ; text-align: left ; text-indent: 0px ; text-transform: none ; word-spacing: 0px ; background-color: rgba(29 , 28 , 29 , 0.04) ; display: inline ; float: none&quot;&gt;enp35s0.4000&lt;/span&gt;&lt;/div&gt;&lt;div&gt;&lt;span style=&quot;color: rgb(224 , 30 , 90) ; font-family: &amp;#34;monaco&amp;#34; , &amp;#34;menlo&amp;#34; , &amp;#34;consolas&amp;#34; , &amp;#34;courier new&amp;#34; , monospace ; font-size: 12px ; font-style: normal ; font-weight: 400 ; letter-spacing: normal ; text-align: left ; text-indent: 0px ; text-transform: none ; word-spacing: 0px ; background-color: rgba(29 , 28 , 29 , 0.04) ; display: inline ; float: none&quot;&gt;&lt;br&gt;&lt;/span&gt;&lt;/div&gt;" style="rounded=0;whiteSpace=wrap;html=1;align=left;verticalAlign=top;" parent="1" vertex="1">
                    <mxGeometry x="520" y="370" width="90" height="50" as="geometry"/>
                </mxCell>
                <mxCell id="NmgbknoarWCByTXODH4I-7" value="&lt;meta charset=&quot;utf-8&quot; style=&quot;font-size: 9px;&quot;&gt;&lt;span style=&quot;color: rgb(29, 28, 29); font-size: 9px; font-style: normal; font-weight: 400; letter-spacing: normal; text-align: left; text-indent: 0px; text-transform: none; word-spacing: 0px; background-color: rgb(255, 255, 255); display: inline; float: none;&quot;&gt;135.181.134.223&lt;/span&gt;" style="text;whiteSpace=wrap;html=1;fontSize=9;" parent="1" vertex="1">
                    <mxGeometry x="390" y="340" width="70" height="10" as="geometry"/>
                </mxCell>
                <mxCell id="NmgbknoarWCByTXODH4I-9" value="10.64.1.3" style="text;whiteSpace=wrap;html=1;fontSize=9;" parent="1" vertex="1">
                    <mxGeometry x="410" y="405" width="70" height="10" as="geometry"/>
                </mxCell>
                <mxCell id="NmgbknoarWCByTXODH4I-10" value="10.64.1.1" style="text;whiteSpace=wrap;html=1;fontSize=9;" parent="1" vertex="1">
                    <mxGeometry x="520" y="405" width="70" height="10" as="geometry"/>
                </mxCell>
                <mxCell id="NmgbknoarWCByTXODH4I-11" value="DHCP" style="rounded=1;whiteSpace=wrap;html=1;fontSize=9;align=left;verticalAlign=top;" parent="1" vertex="1">
                    <mxGeometry x="310" y="405" width="30" height="20" as="geometry"/>
                </mxCell>
                <mxCell id="NmgbknoarWCByTXODH4I-12" value="DNS" style="rounded=1;whiteSpace=wrap;html=1;fontSize=9;align=left;verticalAlign=top;" parent="1" vertex="1">
                    <mxGeometry x="310" y="370" width="30" height="20" as="geometry"/>
                </mxCell>
                <mxCell id="NmgbknoarWCByTXODH4I-13" value="&lt;div&gt;LB&lt;/div&gt;" style="rounded=1;whiteSpace=wrap;html=1;fontSize=9;align=left;verticalAlign=top;" parent="1" vertex="1">
                    <mxGeometry x="310" y="335" width="30" height="20" as="geometry"/>
                </mxCell>
                <mxCell id="NmgbknoarWCByTXODH4I-14" value="KVM" style="rounded=1;whiteSpace=wrap;html=1;fontSize=9;align=center;verticalAlign=top;" parent="1" vertex="1">
                    <mxGeometry x="165" y="340" width="120" height="110" as="geometry"/>
                </mxCell>
                <mxCell id="NmgbknoarWCByTXODH4I-15" value="master1" style="rounded=1;whiteSpace=wrap;html=1;fontSize=9;align=left;verticalAlign=top;" parent="1" vertex="1">
                    <mxGeometry x="180" y="370" width="40" height="20" as="geometry"/>
                </mxCell>
                <mxCell id="NmgbknoarWCByTXODH4I-18" value="master1" style="rounded=1;whiteSpace=wrap;html=1;fontSize=9;align=left;verticalAlign=top;" parent="1" vertex="1">
                    <mxGeometry x="180" y="390" width="40" height="20" as="geometry"/>
                </mxCell>
                <mxCell id="NmgbknoarWCByTXODH4I-19" value="master1" style="rounded=1;whiteSpace=wrap;html=1;fontSize=9;align=left;verticalAlign=top;" parent="1" vertex="1">
                    <mxGeometry x="180" y="410" width="40" height="20" as="geometry"/>
                </mxCell>
                <mxCell id="NmgbknoarWCByTXODH4I-20" value="worker1" style="rounded=1;whiteSpace=wrap;html=1;fontSize=9;align=left;verticalAlign=top;" parent="1" vertex="1">
                    <mxGeometry x="230" y="370" width="40" height="20" as="geometry"/>
                </mxCell>
                <mxCell id="NmgbknoarWCByTXODH4I-21" value="worker2" style="rounded=1;whiteSpace=wrap;html=1;fontSize=9;align=left;verticalAlign=top;" parent="1" vertex="1">
                    <mxGeometry x="230" y="390" width="40" height="20" as="geometry"/>
                </mxCell>
                <mxCell id="NmgbknoarWCByTXODH4I-22" value="worker3" style="rounded=1;whiteSpace=wrap;html=1;fontSize=9;align=left;verticalAlign=top;" parent="1" vertex="1">
                    <mxGeometry x="230" y="410" width="40" height="20" as="geometry"/>
                </mxCell>
                <mxCell id="NmgbknoarWCByTXODH4I-23" value="KVM" style="rounded=1;whiteSpace=wrap;html=1;fontSize=9;align=center;verticalAlign=top;" parent="1" vertex="1">
                    <mxGeometry x="620" y="320" width="120" height="110" as="geometry"/>
                </mxCell>
                <mxCell id="NmgbknoarWCByTXODH4I-24" value="worker4" style="rounded=1;whiteSpace=wrap;html=1;fontSize=9;align=left;verticalAlign=top;" parent="1" vertex="1">
                    <mxGeometry x="635" y="350" width="40" height="20" as="geometry"/>
                </mxCell>
                <mxCell id="NmgbknoarWCByTXODH4I-26" value="worker6" style="rounded=1;whiteSpace=wrap;html=1;fontSize=9;align=left;verticalAlign=top;fillColor=#f8cecc;strokeColor=#b85450;" parent="1" vertex="1">
                    <mxGeometry x="635" y="390" width="40" height="20" as="geometry"/>
                </mxCell>
                <mxCell id="NmgbknoarWCByTXODH4I-27" value="worker5" style="rounded=1;whiteSpace=wrap;html=1;fontSize=9;align=left;verticalAlign=top;" parent="1" vertex="1">
                    <mxGeometry x="635" y="370" width="40" height="20" as="geometry"/>
                </mxCell>
                <mxCell id="NmgbknoarWCByTXODH4I-28" value="/etc/resolv.conf&#10;search hetzner.sandbox1091.opentlc.com&#10;ameserver 127.0.0.1" style="text;whiteSpace=wrap;html=1;fontSize=9;" parent="1" vertex="1">
                    <mxGeometry x="130" y="490" width="190" height="50" as="geometry"/>
                </mxCell>
                <mxCell id="NmgbknoarWCByTXODH4I-29" value="/etc/resolv.conf&lt;br&gt;search hetzner.sandbox1091.opentlc.com&lt;br&gt;nameserver 10.64.1.3" style="text;whiteSpace=wrap;html=1;fontSize=9;" parent="1" vertex="1">
                    <mxGeometry x="560" y="440" width="190" height="60" as="geometry"/>
                </mxCell>
                <mxCell id="NmgbknoarWCByTXODH4I-30" value="" style="curved=1;endArrow=none;html=1;fontSize=9;exitX=0.75;exitY=0;exitDx=0;exitDy=0;startArrow=block;startFill=1;endFill=0;fillColor=#dae8fc;strokeColor=#6c8ebf;" parent="1" source="NmgbknoarWCByTXODH4I-20" edge="1">
                    <mxGeometry width="50" height="50" relative="1" as="geometry">
                        <mxPoint x="630" y="500" as="sourcePoint"/>
                        <mxPoint x="470" y="140" as="targetPoint"/>
                        <Array as="points">
                            <mxPoint x="290" y="340"/>
                            <mxPoint x="490" y="330"/>
                            <mxPoint x="490" y="290"/>
                        </Array>
                    </mxGeometry>
                </mxCell>
                <mxCell id="NmgbknoarWCByTXODH4I-32" value="Traffic for :80 :443" style="edgeLabel;html=1;align=center;verticalAlign=middle;resizable=0;points=[];fontSize=9;" parent="NmgbknoarWCByTXODH4I-30" vertex="1" connectable="0">
                    <mxGeometry x="0.9178" y="2" relative="1" as="geometry">
                        <mxPoint as="offset"/>
                    </mxGeometry>
                </mxCell>
                <mxCell id="NmgbknoarWCByTXODH4I-31" value="" style="curved=1;endArrow=none;html=1;fontSize=9;exitX=0.75;exitY=0;exitDx=0;exitDy=0;startArrow=block;startFill=1;endFill=0;fillColor=#dae8fc;strokeColor=#6c8ebf;" parent="1" edge="1">
                    <mxGeometry width="50" height="50" relative="1" as="geometry">
                        <mxPoint x="200" y="370" as="sourcePoint"/>
                        <mxPoint x="410" y="140" as="targetPoint"/>
                        <Array as="points">
                            <mxPoint x="230" y="340"/>
                            <mxPoint x="430" y="330"/>
                            <mxPoint x="430" y="290"/>
                        </Array>
                    </mxGeometry>
                </mxCell>
                <mxCell id="NmgbknoarWCByTXODH4I-33" value="&lt;div&gt;Traffic for :6443 &lt;br&gt;&lt;/div&gt;&lt;div&gt;:22624 :22623&lt;/div&gt;" style="edgeLabel;html=1;align=center;verticalAlign=middle;resizable=0;points=[];fontSize=9;" parent="1" vertex="1" connectable="0">
                    <mxGeometry x="480.396981530022" y="168.11010742558653" as="geometry">
                        <mxPoint x="-65" y="20" as="offset"/>
                    </mxGeometry>
                </mxCell>
                <mxCell id="NmgbknoarWCByTXODH4I-34" value="" style="curved=1;endArrow=classic;html=1;fontSize=9;exitX=0.5;exitY=1;exitDx=0;exitDy=0;startArrow=open;startFill=0;fillColor=#f5f5f5;strokeColor=#666666;" parent="1" source="NmgbknoarWCByTXODH4I-22" edge="1">
                    <mxGeometry width="50" height="50" relative="1" as="geometry">
                        <mxPoint x="630" y="500" as="sourcePoint"/>
                        <mxPoint x="640" y="360" as="targetPoint"/>
                        <Array as="points">
                            <mxPoint x="310" y="390"/>
                            <mxPoint x="500" y="400"/>
                            <mxPoint x="630" y="390"/>
                        </Array>
                    </mxGeometry>
                </mxCell>
                <mxCell id="NmgbknoarWCByTXODH4I-35" value="Internal traffic" style="edgeLabel;html=1;align=center;verticalAlign=middle;resizable=0;points=[];fontSize=9;" parent="NmgbknoarWCByTXODH4I-34" vertex="1" connectable="0">
                    <mxGeometry x="0.1751" relative="1" as="geometry">
                        <mxPoint x="3" y="11" as="offset"/>
                    </mxGeometry>
                </mxCell>
                <mxCell id="NmgbknoarWCByTXODH4I-36" value="" style="curved=1;endArrow=classic;html=1;fontSize=9;exitX=0.5;exitY=1;exitDx=0;exitDy=0;fillColor=#e1d5e7;strokeColor=#9673a6;" parent="1" source="NmgbknoarWCByTXODH4I-14" edge="1">
                    <mxGeometry width="50" height="50" relative="1" as="geometry">
                        <mxPoint x="630" y="480" as="sourcePoint"/>
                        <mxPoint x="550" y="200" as="targetPoint"/>
                        <Array as="points">
                            <mxPoint x="270" y="440"/>
                            <mxPoint x="290" y="380"/>
                            <mxPoint x="350" y="350"/>
                            <mxPoint x="460" y="340"/>
                            <mxPoint x="530" y="340"/>
                            <mxPoint x="550" y="260"/>
                        </Array>
                    </mxGeometry>
                </mxCell>
                <mxCell id="NmgbknoarWCByTXODH4I-37" value="External traffic" style="edgeLabel;html=1;align=center;verticalAlign=middle;resizable=0;points=[];fontSize=9;" parent="NmgbknoarWCByTXODH4I-36" vertex="1" connectable="0">
                    <mxGeometry x="0.9382" y="-1" relative="1" as="geometry">
                        <mxPoint as="offset"/>
                    </mxGeometry>
                </mxCell>
                <mxCell id="NmgbknoarWCByTXODH4I-38" value="" style="curved=1;endArrow=classic;html=1;fontSize=9;fillColor=#e1d5e7;strokeColor=#9673a6;" parent="1" source="NmgbknoarWCByTXODH4I-23" edge="1">
                    <mxGeometry width="50" height="50" relative="1" as="geometry">
                        <mxPoint x="230" y="450" as="sourcePoint"/>
                        <mxPoint x="555" y="200" as="targetPoint"/>
                        <Array as="points">
                            <mxPoint x="350" y="390"/>
                            <mxPoint x="355" y="370"/>
                            <mxPoint x="355" y="350"/>
                            <mxPoint x="465" y="340"/>
                            <mxPoint x="535" y="340"/>
                            <mxPoint x="555" y="260"/>
                            <mxPoint x="550" y="240"/>
                        </Array>
                    </mxGeometry>
                </mxCell>
                <mxCell id="NmgbknoarWCByTXODH4I-39" value="External traffic" style="edgeLabel;html=1;align=center;verticalAlign=middle;resizable=0;points=[];fontSize=9;" parent="NmgbknoarWCByTXODH4I-38" vertex="1" connectable="0">
                    <mxGeometry x="0.9382" y="-1" relative="1" as="geometry">
                        <mxPoint as="offset"/>
                    </mxGeometry>
                </mxCell>
                <mxCell id="NmgbknoarWCByTXODH4I-41" value="iptables --table nat --append POSTROUTING --out-interface enp35s0 -j MASQUERADE&#10;iptables -A FORWARD --in-interface br-int -j ACCEPT" style="text;whiteSpace=wrap;html=1;fontSize=9;" parent="1" vertex="1">
                    <mxGeometry x="130" y="535" width="360" height="30" as="geometry"/>
                </mxCell>
            </root>
        </mxGraphModel>
    </diagram>
    <diagram id="QTbV7nS2uDg9LV5QDQWu" name="Page-2">
        <mxGraphModel dx="1481" dy="688" grid="1" gridSize="10" guides="1" tooltips="1" connect="1" arrows="1" fold="1" page="1" pageScale="1" pageWidth="850" pageHeight="1100" math="0" shadow="0">
            <root>
                <mxCell id="Phl1VcWyVpDY4DF7lnoH-0"/>
                <mxCell id="Phl1VcWyVpDY4DF7lnoH-1" parent="Phl1VcWyVpDY4DF7lnoH-0"/>
                <mxCell id="Phl1VcWyVpDY4DF7lnoH-2" value="lab-s2" style="rounded=0;whiteSpace=wrap;html=1;align=left;verticalAlign=top;" vertex="1" parent="Phl1VcWyVpDY4DF7lnoH-1">
                    <mxGeometry x="130" y="285" width="270" height="190" as="geometry"/>
                </mxCell>
                <mxCell id="Phl1VcWyVpDY4DF7lnoH-3" value="lab-s1" style="rounded=0;whiteSpace=wrap;html=1;align=right;verticalAlign=top;" vertex="1" parent="Phl1VcWyVpDY4DF7lnoH-1">
                    <mxGeometry x="680" y="285" width="270" height="190" as="geometry"/>
                </mxCell>
                <mxCell id="Phl1VcWyVpDY4DF7lnoH-10" value="DHCP" style="rounded=1;whiteSpace=wrap;html=1;fontSize=9;align=left;verticalAlign=top;" vertex="1" parent="Phl1VcWyVpDY4DF7lnoH-1">
                    <mxGeometry x="310" y="405" width="30" height="20" as="geometry"/>
                </mxCell>
                <mxCell id="Phl1VcWyVpDY4DF7lnoH-11" value="DNS" style="rounded=1;whiteSpace=wrap;html=1;fontSize=9;align=left;verticalAlign=top;" vertex="1" parent="Phl1VcWyVpDY4DF7lnoH-1">
                    <mxGeometry x="310" y="370" width="30" height="20" as="geometry"/>
                </mxCell>
                <mxCell id="Phl1VcWyVpDY4DF7lnoH-12" value="&lt;div&gt;LB&lt;/div&gt;" style="rounded=1;whiteSpace=wrap;html=1;fontSize=9;align=left;verticalAlign=top;" vertex="1" parent="Phl1VcWyVpDY4DF7lnoH-1">
                    <mxGeometry x="310" y="335" width="30" height="20" as="geometry"/>
                </mxCell>
                <mxCell id="Phl1VcWyVpDY4DF7lnoH-13" value="KVM" style="rounded=1;whiteSpace=wrap;html=1;fontSize=9;align=center;verticalAlign=top;" vertex="1" parent="Phl1VcWyVpDY4DF7lnoH-1">
                    <mxGeometry x="165" y="340" width="120" height="110" as="geometry"/>
                </mxCell>
                <mxCell id="Phl1VcWyVpDY4DF7lnoH-14" value="master1" style="rounded=1;whiteSpace=wrap;html=1;fontSize=9;align=left;verticalAlign=top;" vertex="1" parent="Phl1VcWyVpDY4DF7lnoH-1">
                    <mxGeometry x="180" y="370" width="40" height="20" as="geometry"/>
                </mxCell>
                <mxCell id="Phl1VcWyVpDY4DF7lnoH-15" value="master1" style="rounded=1;whiteSpace=wrap;html=1;fontSize=9;align=left;verticalAlign=top;" vertex="1" parent="Phl1VcWyVpDY4DF7lnoH-1">
                    <mxGeometry x="180" y="390" width="40" height="20" as="geometry"/>
                </mxCell>
                <mxCell id="Phl1VcWyVpDY4DF7lnoH-16" value="master1" style="rounded=1;whiteSpace=wrap;html=1;fontSize=9;align=left;verticalAlign=top;" vertex="1" parent="Phl1VcWyVpDY4DF7lnoH-1">
                    <mxGeometry x="180" y="410" width="40" height="20" as="geometry"/>
                </mxCell>
                <mxCell id="Phl1VcWyVpDY4DF7lnoH-17" value="worker1" style="rounded=1;whiteSpace=wrap;html=1;fontSize=9;align=left;verticalAlign=top;" vertex="1" parent="Phl1VcWyVpDY4DF7lnoH-1">
                    <mxGeometry x="230" y="370" width="40" height="20" as="geometry"/>
                </mxCell>
                <mxCell id="Phl1VcWyVpDY4DF7lnoH-20" value="KVM" style="rounded=1;whiteSpace=wrap;html=1;fontSize=9;align=center;verticalAlign=top;" vertex="1" parent="Phl1VcWyVpDY4DF7lnoH-1">
                    <mxGeometry x="790" y="325" width="120" height="110" as="geometry"/>
                </mxCell>
                <mxCell id="Phl1VcWyVpDY4DF7lnoH-21" value="worker4" style="rounded=1;whiteSpace=wrap;html=1;fontSize=9;align=left;verticalAlign=top;" vertex="1" parent="Phl1VcWyVpDY4DF7lnoH-1">
                    <mxGeometry x="810" y="350" width="40" height="20" as="geometry"/>
                </mxCell>
                <mxCell id="Phl1VcWyVpDY4DF7lnoH-22" value="worker6" style="rounded=1;whiteSpace=wrap;html=1;fontSize=9;align=left;verticalAlign=top;fillColor=#f8cecc;strokeColor=#b85450;" vertex="1" parent="Phl1VcWyVpDY4DF7lnoH-1">
                    <mxGeometry x="810" y="390" width="40" height="20" as="geometry"/>
                </mxCell>
                <mxCell id="Phl1VcWyVpDY4DF7lnoH-23" value="worker5" style="rounded=1;whiteSpace=wrap;html=1;fontSize=9;align=left;verticalAlign=top;" vertex="1" parent="Phl1VcWyVpDY4DF7lnoH-1">
                    <mxGeometry x="810" y="370" width="40" height="20" as="geometry"/>
                </mxCell>
                <mxCell id="Phl1VcWyVpDY4DF7lnoH-42" value="" style="group" vertex="1" connectable="0" parent="Phl1VcWyVpDY4DF7lnoH-1">
                    <mxGeometry x="370" y="300" width="90" height="40" as="geometry"/>
                </mxCell>
                <mxCell id="Phl1VcWyVpDY4DF7lnoH-4" value="&lt;span style=&quot;color: rgb(224, 30, 90); font-family: monaco, menlo, consolas, &amp;quot;courier new&amp;quot;, monospace; font-size: 8px; font-style: normal; font-weight: 400; letter-spacing: normal; text-align: left; text-indent: 0px; text-transform: none; word-spacing: 0px; background-color: rgba(29, 28, 29, 0.04); display: inline; float: none;&quot;&gt;enp35s0&lt;/span&gt;" style="rounded=0;whiteSpace=wrap;html=1;align=left;verticalAlign=top;fontSize=8;" vertex="1" parent="Phl1VcWyVpDY4DF7lnoH-42">
                    <mxGeometry width="90" height="40" as="geometry"/>
                </mxCell>
                <mxCell id="Phl1VcWyVpDY4DF7lnoH-7" value="&lt;span style=&quot;color: rgb(29, 28, 29); font-size: 9px; font-style: normal; font-weight: 400; letter-spacing: normal; text-align: left; text-indent: 0px; text-transform: none; word-spacing: 0px; display: inline; float: none;&quot;&gt;135.181.134.223/26&lt;/span&gt;" style="text;whiteSpace=wrap;html=1;fontSize=9;verticalAlign=middle;spacing=0;labelBackgroundColor=none;" vertex="1" parent="Phl1VcWyVpDY4DF7lnoH-42">
                    <mxGeometry y="30" width="70" height="10" as="geometry"/>
                </mxCell>
                <mxCell id="Phl1VcWyVpDY4DF7lnoH-43" value="" style="group" vertex="1" connectable="0" parent="Phl1VcWyVpDY4DF7lnoH-1">
                    <mxGeometry x="370" y="425" width="90" height="40" as="geometry"/>
                </mxCell>
                <mxCell id="Phl1VcWyVpDY4DF7lnoH-5" value="&lt;div style=&quot;font-size: 8px;&quot;&gt;&lt;span style=&quot;color: rgb(224, 30, 90); font-family: monaco, menlo, consolas, &amp;quot;courier new&amp;quot;, monospace; font-size: 8px; font-style: normal; font-weight: 400; letter-spacing: normal; text-align: left; text-indent: 0px; text-transform: none; word-spacing: 0px; background-color: rgba(29, 28, 29, 0.04); display: inline; float: none;&quot;&gt;br-int&lt;/span&gt;&lt;/div&gt;&lt;div style=&quot;font-size: 8px;&quot;&gt;&lt;span style=&quot;color: rgb(224, 30, 90); font-family: monaco, menlo, consolas, &amp;quot;courier new&amp;quot;, monospace; font-size: 8px; font-style: normal; font-weight: 400; letter-spacing: normal; text-align: left; text-indent: 0px; text-transform: none; word-spacing: 0px; background-color: rgba(29, 28, 29, 0.04); display: inline; float: none;&quot;&gt;&lt;/span&gt;&lt;span style=&quot;color: rgb(224, 30, 90); font-family: monaco, menlo, consolas, &amp;quot;courier new&amp;quot;, monospace; font-size: 8px; font-style: normal; font-weight: 400; letter-spacing: normal; text-align: left; text-indent: 0px; text-transform: none; word-spacing: 0px; background-color: rgba(29, 28, 29, 0.04); display: inline; float: none;&quot;&gt;enp35s0.4000&lt;/span&gt;&lt;/div&gt;&lt;div style=&quot;font-size: 8px;&quot;&gt;&lt;span style=&quot;color: rgb(224, 30, 90); font-family: monaco, menlo, consolas, &amp;quot;courier new&amp;quot;, monospace; font-size: 8px; font-style: normal; font-weight: 400; letter-spacing: normal; text-align: left; text-indent: 0px; text-transform: none; word-spacing: 0px; background-color: rgba(29, 28, 29, 0.04); display: inline; float: none;&quot;&gt;&lt;br style=&quot;font-size: 8px;&quot;&gt;&lt;/span&gt;&lt;/div&gt;" style="rounded=0;whiteSpace=wrap;html=1;align=left;verticalAlign=top;fontSize=8;" vertex="1" parent="Phl1VcWyVpDY4DF7lnoH-43">
                    <mxGeometry width="90" height="40" as="geometry"/>
                </mxCell>
                <mxCell id="Phl1VcWyVpDY4DF7lnoH-8" value="10.64.1.3" style="text;whiteSpace=wrap;html=1;fontSize=9;verticalAlign=middle;spacing=0;labelBackgroundColor=none;" vertex="1" parent="Phl1VcWyVpDY4DF7lnoH-43">
                    <mxGeometry y="30" width="70" height="10" as="geometry"/>
                </mxCell>
                <mxCell id="Phl1VcWyVpDY4DF7lnoH-44" value="" style="group" vertex="1" connectable="0" parent="Phl1VcWyVpDY4DF7lnoH-1">
                    <mxGeometry x="640" y="430" width="90" height="40" as="geometry"/>
                </mxCell>
                <mxCell id="Phl1VcWyVpDY4DF7lnoH-6" value="&lt;div style=&quot;font-size: 8px&quot;&gt;&lt;span style=&quot;color: rgb(224 , 30 , 90) ; font-family: &amp;#34;monaco&amp;#34; , &amp;#34;menlo&amp;#34; , &amp;#34;consolas&amp;#34; , &amp;#34;courier new&amp;#34; , monospace ; font-size: 8px ; font-style: normal ; font-weight: 400 ; letter-spacing: normal ; text-align: left ; text-indent: 0px ; text-transform: none ; word-spacing: 0px ; background-color: rgba(29 , 28 , 29 , 0.04) ; display: inline ; float: none&quot;&gt;br-int&lt;/span&gt;&lt;/div&gt;&lt;div style=&quot;font-size: 8px&quot;&gt;&lt;span style=&quot;color: rgb(224 , 30 , 90) ; font-family: &amp;#34;monaco&amp;#34; , &amp;#34;menlo&amp;#34; , &amp;#34;consolas&amp;#34; , &amp;#34;courier new&amp;#34; , monospace ; font-size: 8px ; font-style: normal ; font-weight: 400 ; letter-spacing: normal ; text-align: left ; text-indent: 0px ; text-transform: none ; word-spacing: 0px ; background-color: rgba(29 , 28 , 29 , 0.04) ; display: inline ; float: none&quot;&gt;&lt;/span&gt;&lt;span style=&quot;color: rgb(224 , 30 , 90) ; font-family: &amp;#34;monaco&amp;#34; , &amp;#34;menlo&amp;#34; , &amp;#34;consolas&amp;#34; , &amp;#34;courier new&amp;#34; , monospace ; font-size: 8px ; font-style: normal ; font-weight: 400 ; letter-spacing: normal ; text-align: left ; text-indent: 0px ; text-transform: none ; word-spacing: 0px ; background-color: rgba(29 , 28 , 29 , 0.04) ; display: inline ; float: none&quot;&gt;enp4s0.4000&lt;/span&gt;&lt;/div&gt;&lt;div style=&quot;font-size: 8px&quot;&gt;&lt;span style=&quot;color: rgb(224 , 30 , 90) ; font-family: &amp;#34;monaco&amp;#34; , &amp;#34;menlo&amp;#34; , &amp;#34;consolas&amp;#34; , &amp;#34;courier new&amp;#34; , monospace ; font-size: 8px ; font-style: normal ; font-weight: 400 ; letter-spacing: normal ; text-align: left ; text-indent: 0px ; text-transform: none ; word-spacing: 0px ; background-color: rgba(29 , 28 , 29 , 0.04) ; display: inline ; float: none&quot;&gt;&lt;br style=&quot;font-size: 8px&quot;&gt;&lt;/span&gt;&lt;/div&gt;" style="rounded=0;whiteSpace=wrap;html=1;align=left;verticalAlign=top;fontSize=8;" vertex="1" parent="Phl1VcWyVpDY4DF7lnoH-44">
                    <mxGeometry width="90" height="40" as="geometry"/>
                </mxCell>
                <mxCell id="Phl1VcWyVpDY4DF7lnoH-9" value="10.64.1.1/24" style="text;whiteSpace=wrap;html=1;fontSize=9;verticalAlign=middle;spacing=0;" vertex="1" parent="Phl1VcWyVpDY4DF7lnoH-44">
                    <mxGeometry y="30" width="40" height="10" as="geometry"/>
                </mxCell>
                <mxCell id="Phl1VcWyVpDY4DF7lnoH-45" value="" style="group" vertex="1" connectable="0" parent="Phl1VcWyVpDY4DF7lnoH-1">
                    <mxGeometry x="640" y="300" width="90" height="40" as="geometry"/>
                </mxCell>
                <mxCell id="Phl1VcWyVpDY4DF7lnoH-37" value="&lt;span style=&quot;text-align: left; text-indent: 0px; background-color: rgba(29, 28, 29, 0.04); display: inline; float: none; font-size: 8px;&quot;&gt;&lt;font color=&quot;#e01e5a&quot; face=&quot;monaco, menlo, consolas, courier new, monospace&quot; style=&quot;font-size: 8px;&quot;&gt;br-ext&lt;/font&gt;&lt;br style=&quot;font-size: 8px;&quot;&gt;&lt;font color=&quot;#e01e5a&quot; face=&quot;monaco, menlo, consolas, courier new, monospace&quot; style=&quot;font-size: 8px;&quot;&gt;enp4s0&lt;br style=&quot;font-size: 8px;&quot;&gt;&lt;/font&gt;&lt;br style=&quot;font-size: 8px;&quot;&gt;&lt;/span&gt;" style="rounded=0;whiteSpace=wrap;html=1;align=left;verticalAlign=top;fontSize=8;" vertex="1" parent="Phl1VcWyVpDY4DF7lnoH-45">
                    <mxGeometry width="90" height="40" as="geometry"/>
                </mxCell>
                <mxCell id="Phl1VcWyVpDY4DF7lnoH-38" value="&lt;span style=&quot;font-size: 9px; font-style: normal; font-weight: 400; letter-spacing: normal; text-align: left; text-indent: 0px; text-transform: none; word-spacing: 0px; display: inline; float: none;&quot;&gt;148.251.12.17/32&lt;/span&gt;" style="text;whiteSpace=wrap;html=1;fontSize=9;spacing=0;verticalAlign=middle;fontColor=default;labelBorderColor=none;labelBackgroundColor=none;" vertex="1" parent="Phl1VcWyVpDY4DF7lnoH-45">
                    <mxGeometry y="30" width="70" height="10" as="geometry"/>
                </mxCell>
            </root>
        </mxGraphModel>
    </diagram>
</mxfile>